<mxfile host="app.diagrams.net" modified="2021-06-27T05:58:57.545Z" agent="5.0 (Windows NT 10.0; Win64; x64) AppleWebKit/537.36 (KHTML, like Gecko) Chrome/91.0.4472.114 Safari/537.36" etag="-d2nSSVy6K_Y_dmhVb-t" version="14.8.0" type="github">
  <diagram id="_579DZtt7Hk0ZgUh0uKY" name="Page-1">
    <mxGraphModel dx="1483" dy="781" grid="1" gridSize="10" guides="1" tooltips="1" connect="1" arrows="1" fold="1" page="1" pageScale="1" pageWidth="827" pageHeight="1169" math="0" shadow="0">
      <root>
        <mxCell id="0" />
        <mxCell id="1" parent="0" />
        <mxCell id="jC-xZO9e0ZIaEuoYQlfU-2" value="Поиск по названию" style="ellipse;whiteSpace=wrap;html=1;fontSize=13;fontStyle=2" vertex="1" parent="1">
          <mxGeometry x="80" y="190" width="180" height="80" as="geometry" />
        </mxCell>
        <mxCell id="jC-xZO9e0ZIaEuoYQlfU-8" value="Главная страница" style="ellipse;whiteSpace=wrap;html=1;fontSize=13;fontStyle=2" vertex="1" parent="1">
          <mxGeometry x="310" y="20" width="180" height="80" as="geometry" />
        </mxCell>
        <mxCell id="jC-xZO9e0ZIaEuoYQlfU-9" value="Поиск по географическим координатам" style="ellipse;whiteSpace=wrap;html=1;fontSize=13;fontStyle=2" vertex="1" parent="1">
          <mxGeometry x="540" y="190" width="180" height="80" as="geometry" />
        </mxCell>
        <mxCell id="jC-xZO9e0ZIaEuoYQlfU-10" value="Поиск по номеру" style="ellipse;whiteSpace=wrap;html=1;fontSize=13;fontStyle=2" vertex="1" parent="1">
          <mxGeometry x="310" y="190" width="180" height="80" as="geometry" />
        </mxCell>
        <mxCell id="jC-xZO9e0ZIaEuoYQlfU-11" value="Задание параметров для интерполяции и экспорт" style="ellipse;whiteSpace=wrap;html=1;fontSize=13;fontStyle=2" vertex="1" parent="1">
          <mxGeometry x="310" y="570" width="180" height="80" as="geometry" />
        </mxCell>
        <mxCell id="jC-xZO9e0ZIaEuoYQlfU-12" value="Отображение трех ближайших станций" style="ellipse;whiteSpace=wrap;html=1;fontSize=13;fontStyle=2" vertex="1" parent="1">
          <mxGeometry x="540" y="310" width="180" height="80" as="geometry" />
        </mxCell>
        <mxCell id="jC-xZO9e0ZIaEuoYQlfU-13" value="Вывод найденной &lt;br style=&quot;font-size: 13px;&quot;&gt;информации" style="ellipse;whiteSpace=wrap;html=1;fontSize=13;fontStyle=2" vertex="1" parent="1">
          <mxGeometry x="310" y="430" width="180" height="80" as="geometry" />
        </mxCell>
        <mxCell id="jC-xZO9e0ZIaEuoYQlfU-17" value="" style="curved=1;endArrow=classic;html=1;exitX=0.5;exitY=1;exitDx=0;exitDy=0;entryX=0.5;entryY=0;entryDx=0;entryDy=0;fontSize=13;fontStyle=2" edge="1" parent="1" source="jC-xZO9e0ZIaEuoYQlfU-8" target="jC-xZO9e0ZIaEuoYQlfU-10">
          <mxGeometry width="50" height="50" relative="1" as="geometry">
            <mxPoint x="390" y="310" as="sourcePoint" />
            <mxPoint x="440" y="260" as="targetPoint" />
            <Array as="points" />
          </mxGeometry>
        </mxCell>
        <mxCell id="jC-xZO9e0ZIaEuoYQlfU-18" value="" style="curved=1;endArrow=classic;html=1;exitX=0.5;exitY=1;exitDx=0;exitDy=0;entryX=0.5;entryY=0;entryDx=0;entryDy=0;fontSize=13;fontStyle=2" edge="1" parent="1" source="jC-xZO9e0ZIaEuoYQlfU-9" target="jC-xZO9e0ZIaEuoYQlfU-12">
          <mxGeometry width="50" height="50" relative="1" as="geometry">
            <mxPoint x="390" y="410" as="sourcePoint" />
            <mxPoint x="440" y="360" as="targetPoint" />
            <Array as="points">
              <mxPoint x="630" y="290" />
            </Array>
          </mxGeometry>
        </mxCell>
        <mxCell id="jC-xZO9e0ZIaEuoYQlfU-19" value="" style="curved=1;endArrow=classic;html=1;exitX=0.5;exitY=1;exitDx=0;exitDy=0;entryX=0.5;entryY=0;entryDx=0;entryDy=0;fontSize=13;fontStyle=2" edge="1" parent="1" source="jC-xZO9e0ZIaEuoYQlfU-10" target="jC-xZO9e0ZIaEuoYQlfU-13">
          <mxGeometry width="50" height="50" relative="1" as="geometry">
            <mxPoint x="390" y="410" as="sourcePoint" />
            <mxPoint x="440" y="360" as="targetPoint" />
            <Array as="points">
              <mxPoint x="400" y="310" />
            </Array>
          </mxGeometry>
        </mxCell>
        <mxCell id="jC-xZO9e0ZIaEuoYQlfU-23" value="" style="endArrow=classic;html=1;exitX=0.5;exitY=1;exitDx=0;exitDy=0;entryX=0.5;entryY=0;entryDx=0;entryDy=0;fontSize=13;fontStyle=2" edge="1" parent="1" source="jC-xZO9e0ZIaEuoYQlfU-13" target="jC-xZO9e0ZIaEuoYQlfU-11">
          <mxGeometry width="50" height="50" relative="1" as="geometry">
            <mxPoint x="390" y="610" as="sourcePoint" />
            <mxPoint x="440" y="560" as="targetPoint" />
          </mxGeometry>
        </mxCell>
        <mxCell id="jC-xZO9e0ZIaEuoYQlfU-25" value="" style="endArrow=classic;html=1;fontSize=13;entryX=0.5;entryY=0;entryDx=0;entryDy=0;" edge="1" parent="1" target="jC-xZO9e0ZIaEuoYQlfU-2">
          <mxGeometry width="50" height="50" relative="1" as="geometry">
            <mxPoint x="381" y="100" as="sourcePoint" />
            <mxPoint x="440" y="330" as="targetPoint" />
          </mxGeometry>
        </mxCell>
        <mxCell id="jC-xZO9e0ZIaEuoYQlfU-26" value="" style="endArrow=classic;html=1;fontSize=13;entryX=0.5;entryY=0;entryDx=0;entryDy=0;" edge="1" parent="1" target="jC-xZO9e0ZIaEuoYQlfU-9">
          <mxGeometry width="50" height="50" relative="1" as="geometry">
            <mxPoint x="420" y="100" as="sourcePoint" />
            <mxPoint x="440" y="130" as="targetPoint" />
          </mxGeometry>
        </mxCell>
        <mxCell id="jC-xZO9e0ZIaEuoYQlfU-27" value="" style="endArrow=classic;html=1;fontSize=13;exitX=0.5;exitY=1;exitDx=0;exitDy=0;" edge="1" parent="1" source="jC-xZO9e0ZIaEuoYQlfU-2">
          <mxGeometry width="50" height="50" relative="1" as="geometry">
            <mxPoint x="164" y="290" as="sourcePoint" />
            <mxPoint x="390" y="430" as="targetPoint" />
          </mxGeometry>
        </mxCell>
        <mxCell id="jC-xZO9e0ZIaEuoYQlfU-28" value="" style="endArrow=classic;html=1;fontSize=13;exitX=0.5;exitY=1;exitDx=0;exitDy=0;" edge="1" parent="1" source="jC-xZO9e0ZIaEuoYQlfU-12">
          <mxGeometry width="50" height="50" relative="1" as="geometry">
            <mxPoint x="390" y="380" as="sourcePoint" />
            <mxPoint x="410" y="430" as="targetPoint" />
          </mxGeometry>
        </mxCell>
      </root>
    </mxGraphModel>
  </diagram>
</mxfile>
